#!OML:ASF F:\VICON\USERDATA\INSTALL\rory3\rory3.ASF
:FULLY-SPECIFIED
:DEGREES
1694
root -0.22291 18.0374 1.33052 -367.131 -41.011 -352.724
lowerback 14.4298 -0.678387 -3.08982
upperback 4.66028 -1.42629 -0.150394
thorax -3.09148 -0.75241 1.82798
lowerneck -10.0013 -1.70127 -6.60495
upperneck 1.03587 -1.58706 2.26667
head 2.15935 -0.775131 1.81301
rclavicle -1.37161e-014 7.15625e-015
rhumerus 36.7673 -11.6232 -37.8175
rradius 74.9624
rwrist 29.2832
rhand -50.8395 -6.40503
rfingers 7.12502
rthumb -23.3947 -35.0031
lclavicle -1.37161e-014 7.15625e-015
lhumerus 42.2709 5.41326 40.895
lradius 73.5205
lwrist -3.47722
lhand -27.0715 22.7161
lfingers 7.12502
lthumb -0.489153 52.6953
rfemur -27.3405 11.0607 4.66445
rtibia 40.8336
rfoot -9.88124 -11.0641
rtoes -10.1711
lfemur -11.5886 1.31332 -14.7342
ltibia 57.3764
lfoot -12.4639 10.5414
ltoes -6.11253
1695
root -0.212595 18.1016 1.36105 -367.416 -42.1721 -352.631
lowerback 14.4149 -0.468376 -3.1077
upperback 4.63699 -1.15037 -0.0652811
thorax -3.12019 -0.616215 1.88174
lowerneck -9.4668 -1.52584 -6.34471
upperneck 0.938715 -1.40631 1.91095
head 2.01045 -0.693847 1.65569
rclavicle -3.926e-014 -2.50469e-014
rhumerus 39.8954 -12.4793 -38.395
rradius 72.2535
rwrist 28.9778
rhand -50.1313 -6.12185
rfingers 7.12502
rthumb -22.7151 -34.8048
lclavicle -3.926e-014 -2.50469e-014
lhumerus 43.8229 7.34087 41.3834
lradius 72.3424
lwrist -4.78377
lhand -28.1224 23.1747
lfingers 7.12502
lthumb -1.50417 53.1491
rfemur -26.6892 11.4201 4.74138
rtibia 39.5278
rfoot -9.32811 -10.3184
rtoes -9.78534
lfemur -11.5212 1.22769 -15.2324
ltibia 57.0122
lfoot -12.4358 9.54246
ltoes -7.50089
1696
root -0.197909 18.1655 1.39365 -367.558 -43.3451 -352.652
lowerback 14.3906 -0.291881 -3.05086
upperback 4.56454 -0.905625 0.0582024
thorax -3.19537 -0.49354 1.93888
lowerneck -9.04261 -1.34875 -5.98022
upperneck 1.00822 -1.22188 1.48831
head 1.93662 -0.613145 1.45992
rclavicle -1.05356e-013 1.27222e-014
rhumerus 42.9666 -13.1553 -39.1712
rradius 69.5515
rwrist 28.5938
rhand -49.4473 -5.6392
rfingers 7.12502
rthumb -22.0585 -34.4011
lclavicle -1.05356e-013 1.27222e-014
lhumerus 45.1728 9.19963 42.0034
lradius 71.3357
lwrist -6.15007
lhand -29.1719 23.3748
lfingers 7.12502
lthumb -2.51771 53.3397
rfemur -26.0394 11.8853 4.86105
rtibia 38.067
rfoot -8.7747 -9.69683
rtoes -8.75052
lfemur -11.5214 1.19286 -15.6161
ltibia 56.4682
lfoot -12.3136 8.42828
ltoes -10.5686
1697
root -0.17725 18.2336 1.4276 -367.517 -44.5049 -352.789
lowerback 14.3182 -0.163839 -2.92051
upperback 4.44925 -0.71119 0.197329
thorax -3.2882 -0.394414 1.97872
lowerneck -8.8445 -1.1056 -5.57742
upperneck 1.36311 -0.936631 1.15385
head 1.99749 -0.482427 1.29374
rclavicle 1.49089e-014 1.03368e-014
rhumerus 45.89 -13.6333 -40.0872
rradius 66.977
rwrist 28.3895
rhand -49.0185 -5.73118
rfingers 7.12502
rthumb -21.6467 -34.5411
lclavicle 1.49089e-014 1.03368e-014
lhumerus 46.4317 11.0197 42.776
lradius 70.2853
lwrist -7.54272
lhand -30.3076 23.4915
lfingers 7.12502
lthumb -3.61449 53.4406
rfemur -25.4293 12.55 4.98153
rtibia 36.4736
rfoot -8.09139 -9.27984
rtoes -7.92111
lfemur -11.63 1.11391 -15.8919
ltibia 55.7606
lfoot -12.1866 7.25584
ltoes -12.4823
1698
root -0.152987 18.3059 1.46128 -367.26 -45.6776 -353.095
lowerback 14.1905 -0.0194693 -2.69
upperback 4.30845 -0.476891 0.376888
thorax -3.38075 -0.275121 1.99709
lowerneck -8.62562 -0.876996 -5.19714
upperneck 1.76489 -0.668751 0.879652
head 2.07423 -0.359051 1.15117
rclavicle 6.97734e-014 -1.27222e-014
rhumerus 48.5055 -14.0782 -40.9435
rradius 64.7567
rwrist 28.0416
rhand -48.176 -5.88588
rfingers 7.12502
rthumb -20.8375 -34.7869
lclavicle 6.97734e-014 -1.27222e-014
lhumerus 47.6676 12.6403 43.6616
lradius 69.4732
lwrist -8.86796
lhand -31.6428 24.2598
lfingers 7.12502
lthumb -4.90385 54.183
rfemur -24.8758 13.379 5.1613
rtibia 34.7831
rfoot -7.21244 -9.03817
rtoes -7.64883
lfemur -11.8716 0.842657 -16.0507
ltibia 54.9005
lfoot -12.0176 6.00911
ltoes -13.7658
1699
root -0.128489 18.3752 1.49712 -367.01 -46.8762 -353.342
lowerback 14.0143 0.151233 -2.50988
upperback 4.16579 -0.213022 0.563764
thorax -3.44969 -0.141629 2.04641
lowerneck -8.30362 -0.711759 -4.92199
upperneck 2.09015 -0.481828 0.67988
head 2.11293 -0.273392 1.04715
rclavicle -1.8487e-014 7.95139e-015
rhumerus 50.9603 -14.4433 -41.8661
rradius 62.7682
rwrist 27.5897
rhand -47.4829 -6.12378
rfingers 7.12502
rthumb -20.1714 -35.0965
lclavicle -1.8487e-014 7.95139e-015
lhumerus 48.8235 14.1191 44.5161
lradius 68.8035
lwrist -10.3012
lhand -32.4293 25.7645
lfingers 7.12502
lthumb -5.66325 55.6688
rfemur -24.37 14.3311 5.21073
rtibia 33.0542
rfoot -6.34247 -8.83545
rtoes -6.96998
lfemur -12.1382 0.543277 -16.237
ltibia 53.8582
lfoot -11.7343 4.55149
ltoes -14.9779
1700
root -0.101097 18.444 1.53392 -366.577 -48.1443 -353.781
lowerback 13.7952 0.327289 -2.20827
upperback 4.05913 0.0767752 0.798677
thorax -3.45879 0.00269162 2.07316
lowerneck -8.17302 -0.677841 -4.94401
upperneck 2.46527 -0.4367 0.688594
head 2.21262 -0.255995 1.0575
rclavicle -2.74323e-014 6.36111e-015
rhumerus 53.3161 -14.8228 -42.9104
rradius 60.9999
rwrist 27.3314
rhand -47.1792 -6.56587
rfingers 7.12502
rthumb -19.8796 -35.5691
lclavicle -2.74323e-014 6.36111e-015
lhumerus 50.0767 15.6148 45.4233
lradius 67.9005
lwrist -12.0218
lhand -32.7539 26.5646
lfingers 7.12502
lthumb -5.9766 56.4603
rfemur -23.9345 15.5266 5.30515
rtibia 31.3404
rfoot -5.71769 -8.88252
rtoes -5.5129
lfemur -12.3889 0.341131 -16.2414
ltibia 52.6502
lfoot -11.3135 3.0321
ltoes -17.624
1701
root -0.0715076 18.5112 1.57137 -365.989 -49.3638 -354.352
lowerback 13.5515 0.466239 -1.80464
upperback 3.94978 0.329092 0.996404
thorax -3.4539 0.128122 2.01016
lowerneck -8.18439 -0.657797 -5.18667
upperneck 2.90301 -0.399168 1.11675
head 2.36574 -0.232606 1.24408
rclavicle 6.59965e-014 -3.97569e-015
rhumerus 55.4866 -15.1996 -44.0859
rradius 59.4909
rwrist 27.2973
rhand -46.9268 -5.78743
rfingers 7.12502
rthumb -19.637 -34.8156
lclavicle 6.59965e-014 -3.97569e-015
lhumerus 51.3032 17.0288 46.2316
lradius 67.0964
lwrist -13.7208
lhand -33.6533 26.0962
lfingers 7.12502
lthumb -6.84485 55.9656
rfemur -23.5686 16.9204 5.35706
rtibia 29.7132
rfoot -5.49638 -9.31539
rtoes -3.72559
lfemur -12.6333 -0.0445941 -16.1688
ltibia 51.2602
lfoot -10.7288 1.59454
ltoes -22.6022
1702
root -0.0443627 18.5718 1.61216 -365.595 -50.4946 -354.687
lowerback 13.2696 0.577995 -1.57115
upperback 3.86104 0.518478 1.12043
thorax -3.40235 0.222112 1.97747
lowerneck -8.34535 -0.54043 -5.09501
upperneck 3.43174 -0.251408 1.36103
head 2.5696 -0.156266 1.31947
rclavicle 3.63776e-014 4.77083e-015
rhumerus 57.4501 -15.4688 -45.2138
rradius 58.2419
rwrist 27.3304
rhand -46.937 -4.90227
rfingers 7.12502
rthumb -19.6467 -33.9295
lclavicle 3.63776e-014 4.77083e-015
lhumerus 52.3729 18.3377 46.8229
lradius 66.483
lwrist -15.2521
lhand -35.2788 24.572
lfingers 7.12502
lthumb -8.41382 54.3844
rfemur -23.2359 18.4284 5.12028
rtibia 28.2144
rfoot -5.83867 -10.1146
rtoes -3.84385
lfemur -12.8374 -0.625945 -16.2866
ltibia 49.6953
lfoot -9.89067 0.185713
ltoes -25.9118
1703
root -0.0233057 18.6235 1.65406 -365.336 -51.6364 -354.867
lowerback 12.9386 0.718104 -1.4862
upperback 3.78286 0.724783 1.22672
thorax -3.31412 0.324566 2.00891
lowerneck -8.55231 -0.417896 -4.69986
upperneck 3.99851 -0.110316 1.25093
head 2.79161 -0.0904026 1.2256
rclavicle 1.61811e-013 -1.43125e-014
rhumerus 59.2456 -15.6279 -46.2469
rradius 57.1364
rwrist 27.5089
rhand -47.4149 -5.27775
rfingers 7.12502
rthumb -20.1061 -34.2574
lclavicle 1.61811e-013 -1.43125e-014
lhumerus 53.3344 19.5291 47.26
lradius 65.7913
lwrist -16.9751
lhand -37.2147 23.6903
lfingers 7.12502
lthumb -10.2818 53.419
rfemur -23.0213 20.3343 4.64956
rtibia 26.9289
rfoot -7.31503 -11.2729
rtoes -4.01714
lfemur -13.0032 -1.27602 -16.4697
ltibia 47.9899
lfoot -8.57049 -1.08634
ltoes -25.7126
1704
root -0.00361314 18.6627 1.69378 -365.096 -52.7837 -355.067
lowerback 12.5867 0.874356 -1.37351
upperback 3.77303 0.951962 1.29012
thorax -3.14271 0.435607 1.97863
lowerneck -8.80988 -0.313596 -4.41544
upperneck 4.54518 0.0111989 1.2647
head 3.02153 -0.0303814 1.19179
rclavicle -7.35503e-015 2.14687e-014
rhumerus 60.9808 -15.8756 -47.3889
rradius 56.0283
rwrist 28.1537
rhand -47.7233 -5.57981
rfingers 7.12502
rthumb -20.4025 -34.528
lclavicle -7.35503e-015 2.14687e-014
lhumerus 54.3689 20.6305 47.535
lradius 64.9092
lwrist -18.7628
lhand -39.3294 23.8535
lfingers 7.12502
lthumb -12.3213 53.4705
rfemur -22.8898 22.366 4.15857
rtibia 25.9715
rfoot -10.2122 -12.025
rtoes 1.0631
lfemur -13.1364 -2.11546 -16.5866
ltibia 46.2357
lfoot -6.98958 -2.13444
ltoes -24.2003
1705
root 0.0126907 18.6888 1.73269 -364.901 -53.8152 -355.208
lowerback 12.0915 0.988713 -1.28271
upperback 3.84422 1.11733 1.27783
thorax -2.80425 0.514206 1.89503
lowerneck -9.10853 -0.202637 -4.15991
upperneck 4.99827 0.125147 1.54105
head 3.2315 0.0383282 1.24989
rclavicle -4.79071e-014 1.90833e-014
rhumerus 62.5872 -16.1293 -48.4069
rradius 55.0213
rwrist 28.9531
rhand -47.7402 -4.98618
rfingers 7.12502
rthumb -20.4187 -33.9326
lclavicle -4.79071e-014 1.90833e-014
lhumerus 55.5563 21.6835 47.7101
lradius 63.854
lwrist -20.2357
lhand -41.041 24.9078
lfingers 7.12502
lthumb -13.9711 54.4184
rfemur -22.7823 23.7828 3.77321
rtibia 25.3864
rfoot -13.9013 -11.8892
rtoes 1.45137
lfemur -13.2649 -3.0609 -16.6867
ltibia 44.5704
lfoot -6.04051 -2.98549
ltoes -20.9096
1706
root 0.0265973 18.7079 1.76888 -364.977 -54.7186 -355.047
lowerback 11.6055 1.05955 -1.47159
upperback 3.85754 1.19423 1.2419
thorax -2.53158 0.550648 1.95906
lowerneck -9.17616 -0.0684263 -3.77789
upperneck 5.38131 0.244331 1.75907
head 3.3727 0.11172 1.26473
rclavicle -5.66536e-014 3.49861e-014
rhumerus 63.9352 -16.154 -49.0506
rradius 54.2022
rwrist 29.377
rhand -48.1741 -4.56339
rfingers 7.12502
rthumb -20.8357 -33.4646
lclavicle -5.66536e-014 3.49861e-014
lhumerus 56.6385 22.638 47.8162
lradius 62.7064
lwrist -21.4858
lhand -42.0398 26.16
lfingers 7.12502
lthumb -14.9335 55.6016
rfemur -22.6467 24.2497 3.46496
rtibia 25.2278
rfoot -17.0487 -11.3708
rtoes -1.96391
lfemur -13.2737 -4.00412 -16.9556
ltibia 43.0825
lfoot -6.31664 -2.9159
ltoes -16.572
1707
root 0.0413439 18.7251 1.80254 -365.091 -55.5404 -354.887
lowerback 11.2169 1.09611 -1.72999
upperback 3.77827 1.22343 1.27403
thorax -2.40888 0.565533 2.13857
lowerneck -9.14118 0.101585 -3.54547
upperneck 5.89632 0.42026 2.00394
head 3.53998 0.210852 1.31985
rclavicle 2.38542e-014 -1.90833e-014
rhumerus 65.0427 -15.9592 -49.3072
rradius 53.3993
rwrist 29.4926
rhand -48.9024 -5.09303
rfingers 7.12502
rthumb -21.5353 -33.9158
lclavicle 2.38542e-014 -1.90833e-014
lhumerus 57.4246 23.4107 47.8373
lradius 61.509
lwrist -22.5272
lhand -42.5043 26.6613
lfingers 7.12502
lthumb -15.3809 56.0692
rfemur -22.4316 23.9162 3.40307
rtibia 25.4737
rfoot -19.1958 -11.1942
rtoes -3.08156
lfemur -13.2654 -5.01841 -17.1893
ltibia 41.8139
lfoot -7.01004 -1.54391
ltoes -14.8848
1708
root 0.0581855 18.731 1.83361 -365.181 -56.2879 -354.81
lowerback 10.9029 1.19353 -1.80728
upperback 3.72204 1.34972 1.22156
thorax -2.30246 0.628955 2.11486
lowerneck -9.27731 0.115035 -3.34563
upperneck 6.37724 0.389755 2.29259
head 3.73726 0.211111 1.38571
rclavicle 1.17283e-013 -2.54444e-014
rhumerus 65.821 -16.0274 -49.2624
rradius 52.6239
rwrist 29.0867
rhand -49.4591 -5.8898
rfingers 7.12502
rthumb -22.0698 -34.6504
lclavicle 1.17283e-013 -2.54444e-014
lhumerus 58.3322 23.8426 47.7889
lradius 60.2766
lwrist -23.1687
lhand -42.7742 27.6123
lfingers 7.12502
lthumb -15.6409 57
rfemur -22.1389 22.9661 3.53191
rtibia 25.994
rfoot -20.1964 -11.4588
rtoes -0.654901
lfemur -13.3573 -6.10535 -17.2691
ltibia 40.7515
lfoot -7.4097 -0.226941
ltoes -15.2632
